[img]http://img20.imageshack.us/img20/3518/terminator3riseofthemacl.jpg[/img]

[b][size=200][color=black]PLOT[/color][/size][/b]

[code]John Connor is now in his 20's, and a female terminator, 
called T-X or Terminatrix, is after him. Another T-101 is sent back 
through time to protect John once again on the verge of the rise of 
the machines. [/code]

[b][size=200][color=black]IMDB[/color][/size][/b]

[code]http://www.imdb.com/title/tt0181852/[/code]

[b][size=200][color=black]MOVIE INFO[/color][/size][/b]

[code]Terminator 3 Rise Of The Machines [2003] DVDRip x264 AAC-V3nom

Format : MPEG-4
Format profile : Base Media / Version 2
Codec ID : mp42
File size : 349 MiB
Duration : 1h 44mn
Overall bit rate mode : Variable
Overall bit rate : 466 Kbps
Encoded date : UTC 2012-12-04 16:48:52
Tagged date : UTC 2012-12-04 17:20:42

Video
ID : 1
Format : AVC
Format/Info : Advanced Video Codec
Format profile : Main@L2.1
Format settings, CABAC : Yes
Format settings, ReFrames : 4 frames
Codec ID : avc1
Codec ID/Info : Advanced Video Coding
Duration : 1h 44mn
Bit rate mode : Variable
Bit rate : 335 Kbps
Width : 670 pixels
Height : 270 pixels
Display aspect ratio : 2.481
Frame rate mode : Constant
Frame rate : 25.000 fps
Color space : YUV
Chroma subsampling : 4:2:0
Bit depth : 8 bits
Scan type : Progressive
Bits/(Pixel*Frame) : 0.074
Stream size : 250 MiB (72%)
Writing library : x264 core 112

Audio
ID : 2
Format : AAC
Format/Info : Advanced Audio Codec
Format profile : LC
Codec ID : 40
Duration : 1h 44mn
Bit rate mode : Variable
Bit rate : 128 Kbps
Maximum bit rate : 246 Kbps
Channel(s) : 2 channels
Channel positions : Front: L R
Sampling rate : 48.0 KHz
Compression mode : Lossy
Delay relative to video : 80ms
Stream size : 95.5 MiB (27%)
Encoded date : UTC 2012-12-04 16:48:52
Tagged date : UTC 2012-12-04 17:20:38[/code]

[b][size=200][color=black]SOURCE[/color][/size][/b]

[code]Terminator.3-Rise.Of.The.Machines.2003.DvDrip-aXXo(Thanks)[/code]

[b][size=200][color=black]SCREENSHOTS[/color][/size][/b]

[img]http://img842.imageshack.us/img842/7545/terminator3riseofthemac.jpg[/img]

[img]http://kastatic.com/i2/users/133df62bbf28e62494bb17fe11078f1a.gif[/img][img]http://kastatic.com/i2/users/133df62bbf28e62494bb17fe11078f1a.gif[/img]